:SAMPLES-PER-SECOND 30
:FULLY-SPECIFIED
:DEGREES
50
root  7.89515 39.8361 7.78766 178.39 -85.9862 178.47
RightUpLeg  -9.57608 -2.54962 -15.8411
RightLeg  10.9322 5.30888 0.842337
RightFoot  9.91947 -3.57393 19.2543
RightToes  1.16414e-010 0 -3.6325e-017
Spine  4.79695 -0.502454 -5.53625
Spine1  13.604 -0.318915 -3.3214
HEad  -16.6038 -8.44083 -0.448966
LeftShoulder1  1.6209 -6.10821 -9.50422
LeftArm  54.1748 24.494 -37.8837
LeftForeArm  107.117 -80.8447 -63.4132
LeftHand  -1.11434 2.48334 43.1436
RightShoulder  1.28863 2.8916 13.2134
RightArm  54.7463 -17.0316 31.1163
RightForeArm  144.921 81.929 96.2246
RightHand  -4.81684 10.8056 -33.8593
LeftUpLeg  -2.01758 10.3702 2.67518
LeftLeg  14.3367 16.7894 3.38549
LeftFoot  -7.5648 0.335054 -8.77793
LeftToes  7.09373e-011 9.9627e-011 8.96859e-012
51
root  7.79044 39.853 7.69623 179.915 -86.1918 177.154
RightUpLeg  -9.22432 -1.02766 -16.3268
RightLeg  10.7433 1.85047 -0.0622135
RightFoot  9.34897 -3.07138 17.0739
RightToes  1.16414e-010 0 -3.6325e-017
Spine  4.40658 -0.484356 -5.38134
Spine1  13.275 -0.250807 -3.43282
HEad  -16.2856 -8.67691 -0.429193
LeftShoulder1  1.60331 -5.9955 -9.52053
LeftArm  54.211 24.6754 -37.6807
LeftForeArm  107.016 -80.8485 -63.624
LeftHand  -1.04279 2.67491 43.2568
RightShoulder  1.27153 2.81319 13.1911
RightArm  54.2666 -17.5942 31.2954
RightForeArm  145.037 81.9405 96.0674
RightHand  -4.71608 10.8578 -33.0969
LeftUpLeg  -1.8645 10.5417 2.83936
LeftLeg  13.8947 16.403 2.95756
LeftFoot  -7.49862 0.33831 -8.73566
LeftToes  7.09373e-011 9.9627e-011 8.96859e-012
52
root  7.65786 39.877 7.58245 -178.098 -86.5383 175.387
RightUpLeg  -8.56012 -1.47548 -16.5308
RightLeg  9.98676 -1.39519 -1.04003
RightFoot  9.7301 -2.69975 14.8148
RightToes  1.16414e-010 0 -3.6325e-017
Spine  4.01148 -0.518661 -4.9009
Spine1  12.8524 -0.153738 -3.79469
HEad  -15.9694 -8.97782 -0.425021
LeftShoulder1  1.57276 -5.82526 -9.49893
LeftArm  54.1873 25.0011 -37.3965
LeftForeArm  107.597 -80.9068 -64.6119
LeftHand  -1.04388 2.66284 43.1216
RightShoulder  1.26319 2.76718 13.2079
RightArm  53.8723 -18.1734 31.4648
RightForeArm  144.667 81.9538 95.5224
RightHand  -4.6127 10.8654 -32.4029
LeftUpLeg  -1.67165 10.5799 2.96773
LeftLeg  13.3628 16.0235 2.62884
LeftFoot  -7.39241 0.346726 -8.76152
LeftToes  7.09373e-011 9.9627e-011 8.96859e-012
53
root  7.50237 39.8889 7.41855 -174.712 -86.8578 172.275
RightUpLeg  -7.75441 -2.47273 -16.4616
RightLeg  8.85008 -2.65753 -1.6618
RightFoot  10.6912 -2.49129 13.1217
RightToes  1.16414e-010 0 -3.6325e-017
Spine  3.42694 -0.493572 -4.35251
Spine1  12.6268 0.0282296 -4.20316
HEad  -15.7848 -9.27739 -0.555219
LeftShoulder1  1.5445 -5.58428 -9.65075
LeftArm  54.075 25.1311 -36.9857
LeftForeArm  108.931 -81.0066 -66.1014
LeftHand  -1.08286 2.5416 42.8209
RightShoulder  1.26448 2.7539 13.2781
RightArm  53.5252 -18.6739 31.6093
RightForeArm  143.606 81.9782 94.1914
RightHand  -4.54722 10.9156 -31.8784
LeftUpLeg  -1.59393 10.4679 3.00923
LeftLeg  12.9932 15.8189 2.56682
LeftFoot  -7.27438 0.365287 -9.04838
LeftToes  7.09373e-011 9.9627e-011 8.96859e-012
54
root  7.33501 39.8666 7.16449 -169.325 -86.8424 167.133
RightUpLeg  -7.05225 -2.30022 -16.3006
RightLeg  7.86092 -2.59477 -2.03857
RightFoot  11.4468 -2.69815 13.7205
RightToes  1.16414e-010 0 -3.6325e-017
Spine  2.72695 -0.253597 -4.03083
Spine1  12.6465 0.424459 -4.60289
HEad  -15.7409 -9.44467 -0.684375
LeftShoulder1  1.52534 -5.33534 -9.94163
LeftArm  53.8259 24.9493 -36.5405
LeftForeArm  110.514 -81.1033 -67.3842
LeftHand  -1.06833 2.55594 42.4894
RightShoulder  1.27841 2.78144 13.425
RightArm  53.299 -19.0279 31.5994
RightForeArm  142.923 82.0007 93.1118
RightHand  -4.51036 10.975 -31.5274
LeftUpLeg  -1.60465 10.404 3.04892
LeftLeg  13.0362 15.7566 2.67433
LeftFoot  -7.29932 0.38009 -9.52025
LeftToes  7.09373e-011 9.9627e-011 8.96859e-012
55
root  7.16853 39.8157 6.82166 -163.85 -86.4069 161.735
RightUpLeg  -6.51542 -1.39206 -16.1503
RightLeg  7.36627 -2.7475 -2.35727
RightFoot  11.0919 -3.13838 16.1358
RightToes  1.16414e-010 0 -3.6325e-017
Spine  2.19716 0.171111 -3.91119
Spine1  12.7116 1.0285 -5.11963
HEad  -15.7618 -9.34331 -0.569589
LeftShoulder1  1.50877 -5.1434 -10.154
LeftArm  53.3972 24.7399 -36.1974
LeftForeArm  112.481 -81.2048 -68.4784
LeftHand  -1.01253 2.68858 42.2973
RightShoulder  1.30718 2.85802 13.654
RightArm  53.2788 -19.1569 31.3798
RightForeArm  143.335 82.0133 93.1334
RightHand  -4.49823 10.9766 -31.4447
LeftUpLeg  -1.47566 10.5251 3.20866
LeftLeg  13.352 15.7634 2.7613
LeftFoot  -7.49153 0.382475 -10.0301
LeftToes  7.09373e-011 9.9627e-011 8.96859e-012
56
root  7.01196 39.7738 6.42447 -160.102 -85.8319 157.912
RightUpLeg  -5.98684 -1.4582 -15.8602
RightLeg  7.10544 -3.33815 -2.628
RightFoot  9.49609 -3.2001 17.6263
RightToes  1.16414e-010 0 -3.6325e-017
Spine  1.98329 0.584684 -3.74868
Spine1  12.602 1.64576 -5.71741
HEad  -15.7571 -8.94854 -0.237181
LeftShoulder1  1.48196 -4.98736 -10.1592
LeftArm  52.7513 24.8439 -35.9907
LeftForeArm  115.613 -81.354 -70.0966
LeftHand  -1.0087 2.70067 42.3255
RightShoulder  1.33302 2.92548 13.8599
RightArm  53.3937 -19.0736 31.1511
RightForeArm  144.467 82.0187 93.9043
RightHand  -4.50687 11.0096 -31.4422
LeftUpLeg  -1.05195 10.7469 3.53614
LeftLeg  13.4361 15.8048 2.71806
LeftFoot  -7.55294 0.396927 -10.6098
LeftToes  7.09373e-011 9.9627e-011 8.96859e-012
